#!OML:ASF F:\VICON\USERDATA\INSTALL\rory3\rory3.ASF
:FULLY-SPECIFIED
:DEGREES
3484
root -2.02395 16.6675 -2.03083 55.3992 53.5549 -16.3481
lowerback 39.9359 1.77151 -6.13198
upperback 10.078 -0.620401 -8.99017
thorax -8.1795 0.137716 -6.27078
lowerneck -29.4562 -2.27886 -14.1717
upperneck 19.5374 1.84608 4.10714
head 10.9944 0.285654 4.11676
rclavicle 3.4191e-014 2.38542e-014
rhumerus 79.5964 27.4064 -49.8019
rradius 26.3188
rwrist 21.102
rhand -23.6848 -3.10798
rfingers 7.12502
rthumb 2.78173 -33.0696
lclavicle 3.4191e-014 2.38542e-014
lhumerus 65.8649 -1.21851 49.728
lradius 22.3637
lwrist -16.5993
lhand -11.6461 19.1231
lfingers 7.12502
lthumb 14.3981 48.6038
rfemur -72.4556 -21.3573 57.9451
rtibia 23.8453
rfoot -14.0043 -6.51445
rtoes -5.81788
lfemur -87.3568 0.815898 56.03
ltibia 25.4617
lfoot 1.93293 33.5044
ltoes -29.6316
3485
root -2.02502 16.6704 -2.03494 55.5174 53.5421 -16.3718
lowerback 40.1609 1.72277 -6.25661
upperback 10.0289 -0.757548 -9.04613
thorax -8.31316 0.0812792 -6.2195
lowerneck -29.2638 -2.10059 -13.9666
upperneck 19.4485 1.98838 4.02411
head 10.9154 0.358211 4.0717
rclavicle -8.66701e-014 -4.4329e-014
rhumerus 79.6382 27.4662 -50.427
rradius 26.1638
rwrist 21.5028
rhand -23.7123 -3.49282
rfingers 7.12502
rthumb 2.75524 -33.4548
lclavicle -8.66701e-014 -4.4329e-014
lhumerus 65.8948 -1.05213 49.5624
lradius 22.4827
lwrist -16.3086
lhand -11.2879 19.616
lfingers 7.12502
lthumb 14.7431 49.0717
rfemur -72.6582 -21.3032 58.0999
rtibia 23.9041
rfoot -13.937 -6.39845
rtoes -6.03105
lfemur -87.3311 0.891725 56.1875
ltibia 25.4263
lfoot 1.86887 33.6717
ltoes -29.597
3486
root -2.02706 16.6699 -2.04225 55.5997 53.5496 -16.405
lowerback 40.3967 1.72153 -6.29618
upperback 10.0427 -0.79727 -9.07241
thorax -8.37432 0.0675096 -6.2178
lowerneck -29.3372 -2.06033 -13.9042
upperneck 19.3994 2.01215 4.0813
head 10.9057 0.383623 4.08689
rclavicle -1.20861e-013 -5.38706e-014
rhumerus 79.7403 27.2632 -50.6308
rradius 25.9831
rwrist 21.5338
rhand -23.8046 -3.49647
rfingers 7.12502
rthumb 2.66608 -33.4596
lclavicle -1.20861e-013 -5.38706e-014
lhumerus 66.1045 -1.00183 49.3189
lradius 22.6162
lwrist -15.9895
lhand -10.9079 19.8867
lfingers 7.12502
lthumb 15.1092 49.3152
rfemur -72.8569 -21.2914 58.2881
rtibia 23.9656
rfoot -13.9516 -6.25866
rtoes -5.78015
lfemur -87.3451 0.971617 56.3262
ltibia 25.4119
lfoot 2.07667 33.7507
ltoes -30.115
3487
root -2.03001 16.6588 -2.05218 55.718 53.597 -16.4335
lowerback 40.464 1.65674 -6.12112
upperback 10.1464 -0.806097 -9.13279
thorax -8.29166 0.0654775 -6.37008
lowerneck -29.5729 -2.16572 -14.0037
upperneck 19.4252 1.90955 4.23615
head 10.9625 0.349554 4.1479
rclavicle -3.65764e-014 -2.98177e-015
rhumerus 78.9059 27.0754 -54.2266
rradius 24.8374
rwrist 24.3647
rhand -23.5747 -2.32237
rfingers 7.12502
rthumb 2.88812 -32.2826
lclavicle -3.65764e-014 -2.98177e-015
lhumerus 66.5579 -0.97009 49.183
lradius 22.4877
lwrist -15.9152
lhand -10.9415 19.2209
lfingers 7.12502
lthumb 15.0769 48.6519
rfemur -73.1421 -21.3156 58.5908
rtibia 24.027
rfoot -13.8419 -6.08287
rtoes -5.75578
lfemur -87.4606 1.05191 56.7314
ltibia 25.4082
lfoot 2.76835 34.0611
ltoes -31.1729
3488
root -2.03524 16.6519 -2.06407 55.8733 53.6399 -16.4175
lowerback 40.48 1.55488 -5.93201
upperback 10.2048 -0.85049 -9.14398
thorax -8.2451 0.0451275 -6.46078
lowerneck -29.6622 -2.21082 -14.1442
upperneck 19.5186 1.90603 4.30813
head 11.0116 0.34245 4.20063
rclavicle 1.35174e-014 -5.64548e-014
rhumerus 78.67 27.0024 -55.4859
rradius 24.3641
rwrist 25.1171
rhand -23.4389 -1.86959
rfingers 7.12502
rthumb 3.01927 -31.828
lclavicle 1.35174e-014 -5.64548e-014
lhumerus 66.7767 -0.8828 49.2029
lradius 22.3449
lwrist -15.8579
lhand -10.8132 18.4459
lfingers 7.12502
lthumb 15.2004 47.8675
rfemur -73.4428 -21.2903 58.7791
rtibia 24.1363
rfoot -13.7197 -5.998
rtoes -5.67064
lfemur -87.5426 1.18514 56.93
ltibia 25.3645
lfoot 2.08584 34.4863
ltoes -29.5234
3489
root -2.04138 16.6539 -2.07918 55.9372 53.6014 -16.4001
lowerback 40.5785 1.47298 -5.84396
upperback 10.2523 -0.919583 -9.17619
thorax -8.23447 0.0162498 -6.51473
lowerneck -29.7478 -2.1524 -14.0375
upperneck 19.5678 1.98239 4.20651
head 11.0394 0.368964 4.16063
rclavicle -3.18055e-015 3.37934e-014
rhumerus 78.8074 26.9257 -55.4923
rradius 24.2128
rwrist 24.8406
rhand -23.3801 -1.7041
rfingers 7.12502
rthumb 3.07599 -31.6617
lclavicle -3.18055e-015 3.37934e-014
lhumerus 66.8244 -0.784115 48.9746
lradius 22.4452
lwrist -15.7269
lhand -10.3165 18.4611
lfingers 7.12502
lthumb 15.6789 47.8458
rfemur -73.6055 -21.2276 58.7424
rtibia 24.2657
rfoot -13.6956 -6.00983
rtoes -5.77938
lfemur -87.5143 1.21843 57.0432
ltibia 25.2914
lfoot -0.0336707 35.1285
ltoes -25.7301
